<svg width="1024" height="1024" viewBox="0 0 1024 1024" fill="none" xmlns="http://www.w3.org/2000/svg">
<path d="M712.99 165.584C712.99 250.406 623.89 319.167 513.98 319.167C404.07 319.167 314.97 250.406 314.97 165.584C314.97 80.7617 404.07 58.5 513.98 58.5C623.89 58.5 712.99 80.7617 712.99 165.584Z" fill="url(#paint0_linear_2083_3)"/>
<path d="M712.99 858.416C712.99 943.238 623.89 1012 513.98 1012C404.07 1012 314.97 943.238 314.97 858.416C314.97 773.594 404.07 704.833 513.98 704.833C623.89 704.833 712.99 773.594 712.99 858.416Z" fill="url(#paint1_linear_2083_3)"/>
<path d="M1012 704.833C1012 789.655 922.9 858.416 812.99 858.416C703.08 858.416 613.98 789.655 613.98 704.833C613.98 620.011 703.08 551.249 812.99 551.249C922.9 551.249 1012 620.011 1012 704.833Z" fill="url(#paint2_linear_2083_3)"/>
<path d="M1012 319.167C1012 403.989 922.9 472.751 812.99 472.751C703.08 472.751 613.98 403.989 613.98 319.167C613.98 234.345 603.08 165.584 712.99 165.584C822.9 165.584 1012 234.345 1012 319.167Z" fill="url(#paint3_linear_2083_3)"/>
<path d="M410.02 319.167C410.02 403.989 320.92 472.751 211.01 472.751C101.1 472.751 12 403.989 12 319.167C12 234.345 205.06 165.584 314.97 165.584C424.88 165.584 410.02 234.345 410.02 319.167Z" fill="url(#paint4_linear_2083_3)"/>
<path d="M410.02 704.833C410.02 789.655 320.92 858.416 211.01 858.416C101.1 858.416 12 789.655 12 704.833C12 620.011 101.1 551.249 211.01 551.249C320.92 551.249 410.02 620.011 410.02 704.833Z" fill="url(#paint5_linear_2083_3)"/>
<path d="M12 319.167L110.02 299.543V704.833H12L73 511L12 319.167Z" fill="url(#paint6_linear_2083_3)"/>
<path d="M913.98 299.543L1012 319.167L956.5 511L1012 704.833H913.98V299.543Z" fill="url(#paint7_linear_2083_3)"/>
<path d="M97.1485 816.979L143.201 753.468L486.074 938.104L441.897 1001.62L84 823.076L97.1485 816.979Z" fill="url(#paint8_linear_2083_3)"/>
<path d="M928.648 816.979L882.596 753.468L539.723 938.104L585.775 1001.62L942 821.778L928.648 816.979Z" fill="url(#paint9_linear_2083_3)"/>
<path d="M102.099 251.761H925.861V753.468H102.099V251.761Z" fill="url(#paint10_linear_2083_3)"/>
<path d="M280.317 806.369H763.485V877.188H280.317V806.369Z" fill="url(#paint11_linear_2083_3)"/>
<path d="M334.355 275.36C343.875 274.453 353.055 274.793 361.895 276.38C374.362 278.193 386.149 282.727 397.255 289.98C398.615 291.113 399.635 291.567 400.315 291.34C401.449 290.207 404.395 287.6 409.155 283.52C415.049 278.533 418.109 275.927 418.335 275.7C419.015 275.247 420.602 275.02 423.095 275.02C425.815 275.02 427.515 275.247 428.195 275.7C429.329 276.38 430.009 277.967 430.235 280.46C430.462 283.633 430.575 295.42 430.575 315.82C430.575 341.207 429.782 354.467 428.195 355.6C427.289 356.053 424.002 356.28 418.335 356.28C412.669 356.28 409.382 356.053 408.475 355.6C407.115 354.92 406.209 352.54 405.755 348.46C404.395 341.207 402.242 334.52 399.295 328.4C396.575 322.733 392.835 317.747 388.075 313.44C378.329 303.92 364.729 298.82 347.275 298.14C328.689 297.46 316.902 303.58 311.915 316.5C310.782 319.673 310.215 323.3 310.215 327.38C310.215 331.913 311.009 335.88 312.595 339.28C315.995 346.307 322.115 351.52 330.955 354.92C332.542 355.827 341.269 357.867 357.135 361.04C373.455 364.44 382.522 366.48 384.335 367.16C394.309 369.653 403.262 373.847 411.195 379.74C427.515 391.753 437.375 408.187 440.775 429.04C441.682 435.387 441.682 443.32 440.775 452.84C439.415 461.453 436.809 469.727 432.955 477.66C428.422 486.953 422.415 494.433 414.935 500.1C404.509 508.033 391.929 513.02 377.195 515.06C371.529 515.967 362.802 516.08 351.015 515.4C349.882 515.173 348.975 515.06 348.295 515.06C328.802 513.02 313.162 508.147 301.375 500.44C300.015 499.533 298.995 499.193 298.315 499.42C297.182 500.553 294.235 503.16 289.475 507.24C283.582 512.227 280.522 514.833 280.295 515.06C279.615 515.513 278.029 515.74 275.535 515.74C272.815 515.74 271.115 515.513 270.435 515.06C269.302 514.38 268.622 512.793 268.395 510.3C268.169 507.127 268.055 495.453 268.055 475.28C268.055 450.573 268.282 437.88 268.735 437.2C268.962 436.747 269.415 436.18 270.095 435.5C271.229 434.82 274.515 434.48 279.955 434.48C285.849 434.48 289.249 434.707 290.155 435.16C291.742 436.067 292.535 438.447 292.535 442.3C293.215 454.54 297.522 464.627 305.455 472.56C311.349 478.453 319.509 483.1 329.935 486.5C343.309 490.807 356.682 492.28 370.055 490.92C371.869 490.693 373.455 490.467 374.815 490.24C381.162 488.88 386.375 486.16 390.455 482.08C394.989 477.547 397.935 471.427 399.295 463.72C401.109 452.16 397.935 442.3 389.775 434.14C386.375 430.287 381.955 427.567 376.515 425.98C375.609 425.527 366.542 423.373 349.315 419.52C332.995 416.347 323.702 414.307 321.435 413.4C304.662 408.64 291.515 399.687 281.995 386.54C272.249 373.62 267.602 359.113 268.055 343.02C268.735 326.927 273.495 313.1 282.335 301.54C290.722 290.207 302.962 282.387 319.055 278.08C324.495 276.72 329.595 275.813 334.355 275.36ZM619.164 275.36C620.07 274.907 623.697 274.907 630.044 275.36C637.977 275.36 645.23 276.04 651.804 277.4C665.857 280.573 678.437 286.467 689.544 295.08C691.357 296.213 692.264 296.667 692.264 296.44C692.49 296.44 696.684 293.04 704.844 286.24C713.91 278.987 718.33 275.473 718.104 275.7C719.917 274.567 723.204 274.567 727.964 275.7C729.097 276.38 729.777 277.513 730.004 279.1C730.23 281.367 730.344 296.1 730.344 323.3C730.344 353.447 730.004 368.973 729.324 369.88L727.964 370.56C727.057 371.013 723.43 371.24 717.084 371.24C710.737 371.24 707.11 371.013 706.204 370.56C704.617 369.427 703.71 367.727 703.484 365.46C702.124 350.953 696.91 337.467 687.844 325C676.964 310.267 663.024 301.88 646.024 299.84C634.01 298.253 620.41 299.727 605.224 304.26C581.424 311.06 565.897 325.113 558.644 346.42C554.79 357.753 552.864 374.073 552.864 395.38C552.864 411.02 553.657 422.92 555.244 431.08C560.004 457.373 574.284 475.053 598.084 484.12C613.724 490.24 630.157 492.393 647.384 490.58C651.69 490.353 655.317 489.673 658.264 488.54C665.064 486.047 669.597 482.76 671.864 478.68C672.997 475.507 673.564 468.593 673.564 457.94V442.64H649.084H624.604V430.4V418.16H630.044L668.464 418.84C690.904 419.067 710.057 419.067 725.924 418.84L753.804 418.16H757.544V430.4V442.64H743.944H730.344V475.28C730.344 498.173 729.55 510.187 727.964 511.32C726.377 512 723.09 511.433 718.104 509.62C705.864 505.54 697.25 502.027 692.264 499.08L689.544 497.38L686.824 499.76C676.85 507.693 662.91 512.793 645.004 515.06C637.524 515.967 627.664 516.08 615.424 515.4C614.29 515.173 613.384 515.06 612.704 515.06C598.877 513.927 585.617 511.32 572.924 507.24C547.537 498.853 527.817 484.913 513.764 465.42C502.43 449.1 495.404 430.627 492.684 410C491.777 401.84 491.777 392.547 492.684 382.12C492.684 381.44 492.684 380.873 492.684 380.42C495.404 360.02 502.43 341.66 513.764 325.34C529.404 303.353 552.184 288.507 582.104 280.8C592.757 278.08 605.11 276.267 619.164 275.36ZM276.008 584.54V582.5H390.588H505.508V584.54L509.248 627.72C511.288 656.053 512.421 670.447 512.648 670.9V672.94H500.408C492.248 672.94 488.168 672.827 488.168 672.6C488.168 668.067 487.601 662.173 486.468 654.92C485.108 644.72 483.181 636.333 480.688 629.76C477.288 621.827 471.508 615.933 463.348 612.08C459.948 610.267 455.415 608.907 449.748 608C447.708 607.547 441.928 607.207 432.408 606.98H419.148V697.08V787.52H445.328H471.168V799.76V812H465.728L425.608 811.32C402.261 811.093 379.028 811.093 355.908 811.32L315.788 812H310.348V799.76V787.52H336.528H362.368V697.08V606.98H349.108C339.588 607.207 333.808 607.547 331.768 608C321.115 610.04 312.955 614.007 307.288 619.9C303.661 623.527 300.715 628.967 298.448 636.22C296.635 642.793 295.161 652.88 294.028 666.48C293.575 670.333 293.348 672.373 293.348 672.6C293.348 672.827 289.268 672.94 281.108 672.94H268.868V670.9L272.608 627.72C274.648 599.387 275.781 584.993 276.008 584.54ZM546.922 591V578.76H551.342C551.115 578.76 561.995 578.987 583.982 579.44C602.795 579.667 622.968 579.667 644.502 579.44L681.562 578.76H686.322V591V603.24H663.542H640.422V695.38V787.52H655.042C665.468 787.52 671.702 787.293 673.742 786.84C683.035 785.707 691.422 782.647 698.902 777.66C712.728 768.14 721.455 752.273 725.082 730.06C726.895 720.087 727.802 713.627 727.802 710.68C727.802 710.453 731.882 710.34 740.042 710.34H752.282V712.04C751.828 713.173 750.128 729.493 747.182 761C743.782 793.413 741.968 809.847 741.742 810.3V812H644.162H546.922V799.76V787.52H565.282H583.642V695.38V603.24H565.282H546.922V591Z" fill="#EEF3EE"/>
<defs>
<linearGradient id="paint0_linear_2083_3" x1="512" y1="12" x2="512" y2="1012" gradientUnits="userSpaceOnUse">
<stop stop-color="#0C7F5E"/>
<stop offset="1" stop-color="#006A4E"/>
</linearGradient>
<linearGradient id="paint1_linear_2083_3" x1="512" y1="12" x2="512" y2="1012" gradientUnits="userSpaceOnUse">
<stop stop-color="#0C7F5E"/>
<stop offset="1" stop-color="#006A4E"/>
</linearGradient>
<linearGradient id="paint2_linear_2083_3" x1="512" y1="12" x2="512" y2="1012" gradientUnits="userSpaceOnUse">
<stop stop-color="#0C7F5E"/>
<stop offset="1" stop-color="#006A4E"/>
</linearGradient>
<linearGradient id="paint3_linear_2083_3" x1="512" y1="12" x2="512" y2="1012" gradientUnits="userSpaceOnUse">
<stop stop-color="#0C7F5E"/>
<stop offset="1" stop-color="#006A4E"/>
</linearGradient>
<linearGradient id="paint4_linear_2083_3" x1="512" y1="12" x2="512" y2="1012" gradientUnits="userSpaceOnUse">
<stop stop-color="#0C7F5E"/>
<stop offset="1" stop-color="#006A4E"/>
</linearGradient>
<linearGradient id="paint5_linear_2083_3" x1="512" y1="12" x2="512" y2="1012" gradientUnits="userSpaceOnUse">
<stop stop-color="#0C7F5E"/>
<stop offset="1" stop-color="#006A4E"/>
</linearGradient>
<linearGradient id="paint6_linear_2083_3" x1="512" y1="12" x2="512" y2="1012" gradientUnits="userSpaceOnUse">
<stop stop-color="#0C7F5E"/>
<stop offset="1" stop-color="#006A4E"/>
</linearGradient>
<linearGradient id="paint7_linear_2083_3" x1="512" y1="12" x2="512" y2="1012" gradientUnits="userSpaceOnUse">
<stop stop-color="#0C7F5E"/>
<stop offset="1" stop-color="#006A4E"/>
</linearGradient>
<linearGradient id="paint8_linear_2083_3" x1="512" y1="12" x2="512" y2="1012" gradientUnits="userSpaceOnUse">
<stop stop-color="#0C7F5E"/>
<stop offset="1" stop-color="#006A4E"/>
</linearGradient>
<linearGradient id="paint9_linear_2083_3" x1="512" y1="12" x2="512" y2="1012" gradientUnits="userSpaceOnUse">
<stop stop-color="#0C7F5E"/>
<stop offset="1" stop-color="#006A4E"/>
</linearGradient>
<linearGradient id="paint10_linear_2083_3" x1="512" y1="12" x2="512" y2="1012" gradientUnits="userSpaceOnUse">
<stop stop-color="#0C7F5E"/>
<stop offset="1" stop-color="#006A4E"/>
</linearGradient>
<linearGradient id="paint11_linear_2083_3" x1="512" y1="12" x2="512" y2="1012" gradientUnits="userSpaceOnUse">
<stop stop-color="#0C7F5E"/>
<stop offset="1" stop-color="#006A4E"/>
</linearGradient>
</defs>
</svg>
